<?xml version="1.0" standalone="no"?><!DOCTYPE svg PUBLIC "-//W3C//DTD SVG 1.1//EN" "http://www.w3.org/Graphics/SVG/1.1/DTD/svg11.dtd"><svg t="1718533042687" class="icon" viewBox="0 0 1024 1024" version="1.1" xmlns="http://www.w3.org/2000/svg" p-id="1112" xmlns:xlink="http://www.w3.org/1999/xlink" width="200" height="200"><path d="M512 1039.92888853C229.83111147 1039.92888853 2.2755552 812.37333333 2.2755552 530.2044448V76.91377813C2.2755552 45.96622187 27.76177813 20.48 58.70933333 20.48h904.76088854C996.23822187 20.48 1021.7244448 45.96622187 1021.7244448 76.91377813V530.2044448c0 282.16888853-227.5555552 509.7244448-509.7244448 509.72444373zM952.5475552 111.50222187c0-12.74311147-10.92266667-23.66577813-23.66577707-23.66577707H93.29777813c-12.74311147 1.8204448-21.84533333 10.92266667-21.84533333 23.66577707v418.70222293c0 243.9395552 198.4284448 440.5475552 440.5475552 440.5475552 243.9395552 0 440.5475552-198.4284448 440.5475552-440.5475552V111.50222187zM785.06666667 737.73511147c-5.46133333 18.2044448-25.48622187 27.30666667-43.69066667 21.84533333L512 684.94222187l-229.376 74.63822293c-18.2044448 5.46133333-36.40888853-3.64088853-43.69066667-21.84533333-5.46133333-18.2044448 3.64088853-36.40888853 21.84533334-43.69066667l140.17422186-45.51111147-89.20177706-29.12711146c-14.5635552-5.46133333-23.66577813-18.2044448-23.66577814-32.768v-89.20177707h-14.5635552c-18.2044448 0-34.5884448-14.5635552-34.5884448-34.5884448 0-18.2044448 14.5635552-34.5884448 34.5884448-34.5884448h14.5635552c0-18.2044448 14.5635552-34.5884448 34.5884448-34.58844373s34.5884448 14.5635552 34.58844374 34.58844373h313.1164448c0-18.2044448 14.5635552-34.5884448 34.5884448-34.58844373s34.5884448 14.5635552 34.58844373 34.58844373h14.56355627c18.2044448 0 34.5884448 14.5635552 34.58844373 34.5884448 0 18.2044448-14.5635552 34.5884448-34.58844373 34.5884448h-14.56355627v89.20177707c0 14.5635552-10.92266667 29.12711147-25.48622187 34.5884448l-89.20177813 29.12711146 140.17422293 45.5111104c9.10222187 3.64088853 16.384 9.10222187 20.02488854 16.384 1.8204448 7.28177813 1.8204448 16.384 0 25.48622294z m-116.5084448-174.76266667v-65.536H355.44177813v65.536l156.55822187 50.97244373 156.55822187-50.97244373z m83.7404448-182.0444448c-18.2044448 0-34.5884448-14.5635552-34.5884448-34.5884448v-7.28177707c0-12.74311147-10.92266667-23.66577813-23.66577707-23.66577813H329.9555552c-12.74311147 0-23.66577813 10.92266667-23.66577707 23.66577813v7.28177707c0 18.2044448-14.5635552 34.5884448-34.5884448 34.5884448-18.2044448 0-34.5884448-14.5635552-34.5884448-34.5884448v-41.87022187c0-30.9475552 25.48622187-56.43377813 56.43377814-56.43377813h182.0444448c0-18.2044448 14.5635552-34.5884448 34.58844373-34.58844373 18.2044448 0 34.5884448 14.5635552 34.5884448 34.58844373h182.0444448c30.9475552 0 56.43377813 25.48622187 56.43377707 56.43377813v41.87022187c1.8204448 20.02488853-12.74311147 34.5884448-30.9475552 34.5884448z m0 0" fill="#2e76e6" p-id="1113"></path></svg>