<?xml version="1.0" standalone="no"?><!DOCTYPE svg PUBLIC "-//W3C//DTD SVG 1.1//EN" "http://www.w3.org/Graphics/SVG/1.1/DTD/svg11.dtd"><svg t="1718467032844" class="icon" viewBox="0 0 1024 1024" version="1.1" xmlns="http://www.w3.org/2000/svg" p-id="955" xmlns:xlink="http://www.w3.org/1999/xlink" width="200" height="200"><path d="M874.336 16.27946667H180.22933333c-47.9168 0-86.76266667 38.84373333-86.76266666 86.7584v780.83306666c0 47.91466667 38.8448 86.75946667 86.76266666 86.75946667h694.10346667c47.9168 0 86.7616-38.84373333 86.7616-86.75946667V103.03786667c0-47.91466667-38.84373333-86.7584-86.76053333-86.7584z m0 824.2112c0 23.95946667-19.424 43.3792-43.38346667 43.3792H223.61173333c-23.95946667 0-43.38133333-19.4208-43.38133333-43.3792V146.41706667c0-23.95733333 19.42293333-43.3792 43.38133333-43.3792h607.3408c23.96053333 0 43.3824 19.424 43.3824 43.3792V840.49066667z" fill="#2e76e6" p-id="956"></path><path d="M298.61973333 510.90773333h86.75946667v279.13813334h-86.75946667V510.90773333zM476.26666667 440.0928h86.7584v349.95306667H476.26666667V440.0928zM653.9136 389.12h86.7584v400.92586667h-86.7584V389.12z" fill="#2e76e6" p-id="957"></path></svg>