<?xml version="1.0" standalone="no"?><!DOCTYPE svg PUBLIC "-//W3C//DTD SVG 1.1//EN" "http://www.w3.org/Graphics/SVG/1.1/DTD/svg11.dtd"><svg t="1718533153567" class="icon" viewBox="0 0 1024 1024" version="1.1" xmlns="http://www.w3.org/2000/svg" p-id="1428" xmlns:xlink="http://www.w3.org/1999/xlink" width="200" height="200"><path d="M597.31525025 56.65393019l8.26433233-4.72247561 8.47145845-4.61891255 4.28751076-2.23696214 8.7407224-4.34964859c2.94119095-1.44988286 5.90309452-2.81691529 8.90642331-4.16323509l8.98927375-3.91468373c3.02404141-1.24275675 6.06879541-2.44408827 9.11354944-3.60399454l9.17568728-3.29330537c50.6837624-17.1293304 103.6666248-17.81284661 140.74220088 26.40858074 42.08802829 50.18665971 19.59413129 99.68980322-13.44248542 136.64110365l-5.59240533 6.02737019-5.73739362 5.79953146c-0.95278017 0.95278017-1.92627295 1.86413511-2.89976573 2.79620267l-5.82024406 5.40599182a308.2036717 308.2036717 0 0 1-2.92047834 2.60978915l-8.69929718 7.37369-5.67525579 4.55677472-8.18148188 6.2137837-9.98347915 7.14585125-8.5543089 5.73739363-10.97768454 6.79373684-1.53273332 0.89064233 13.62889893 10.83269627 9.81777825 8.05720619 15.2444827 12.84181965 14.20885205 12.30329174 11.64048814 10.31488094 12.34471696 11.20552329 12.90395749 12.01331517 13.38034758 12.80039443 9.11354942 8.9064233 9.1963999 9.19639988a979.18874864 979.18874864 0 0 1 73.11552158 81.93909444c77.96227287 98.94414917 104.12230226 228.522252 54.55702091 342.44161991C910.24139757 904.64899223 777.32856415 1009.64122421 511.97928738 1009.1026963c-265.34927677 0.53852791-398.22068496-104.45370405-451.12069688-226.09887637-49.56528133-113.9193679-23.40525195-243.49747074 54.55702091-342.44161991l8.74072242-10.8948341 8.90642331-10.72913319 9.09283681-10.56343229 9.19639988-10.39773141 9.25853772-10.19060526 9.32067556-9.96276654 13.96030072-14.49882864 13.83602506-13.89816289 9.11354942-8.9064233 13.35963497-12.77968183 12.9246701-12.01331515 12.34471696-11.22623591 11.64048814-10.31488094 14.20885205-12.32400434 15.2444827-12.84181966 23.44667718-18.84847723-7.33226477-4.41178643-7.16656387-4.59819994-6.56589812-4.43249905-7.37369-5.2195783-8.01578098-6.00665758-5.59240534-4.37036121-5.7373936-4.701763-5.79953146-4.99173958-5.8616693-5.26100353a281.98150448 281.98150448 0 0 1-5.79953145-5.55098011l-5.73739362-5.79953146-5.59240533-6.02737019c-33.03661669-36.95130043-55.55122631-86.45444393-13.46319803-136.64110365 39.35396347-46.91406697 96.54148613-43.28935981 149.93860077-23.11527537l9.11354944 3.60399454 8.98927375 3.91468373 4.47392426 2.05054862 8.80286026 4.24608554 4.34964859 2.21624952 8.57502151 4.5360621 4.2046603 2.31981259 8.26433233 4.72247561a169.9469843 169.9469843 0 0 0 170.6305005 0z m159.07286282 35.41856711c-19.73911956-23.52952763-61.30933253-19.36629253-121.76944798 14.80951783l-5.90309452 3.39686842a232.10553395 232.10553395 0 0 1-233.43114114 0c-63.71199557-37.28270222-107.31204457-42.50228053-127.69325512-18.18567363-15.32733314 18.26852409-8.30575755 38.31833283 27.52706182 70.60929549a291.4264557 291.4264557 0 0 0 31.95956085 24.8344222l9.21711249 5.96523236 4.08038463 2.44408824c37.77980492 21.16828981 42.58513099 73.11552158 10.54271968 100.99469781l-4.14252246 3.33473059-9.69350257 7.70509178-11.30908635 9.25853772-6.00665758 5.0331648-12.67611876 10.77055842a1265.60275216 1265.60275216 0 0 0-91.21834476 86.62014484 862.22462672 862.22462672 0 0 0-51.6572552 59.36234698c-66.90173787 84.92171061-84.96313584 190.49389573-46.37553904 279.20601441 50.89088853 117.02625975 178.12846617 189.16828855 394.264576 188.73332369 215.90827109 0.43496485 343.16656133-71.70706395 394.05744988-188.7540363 38.5875968-88.69140606 20.54691145-194.28430381-46.39625166-279.20601442a880.80384 880.80384 0 0 0-57.51892448-65.45185502l-10.68770797-10.97768453-8.98927376-8.96856115a1327.11921083 1327.11921083 0 0 0-74.93823146-68.47589642l-9.94205392-8.32647016-13.4010602-10.93625931-8.07791882-6.40019723c-34.3829365-26.32573029-31.73172211-78.41795035 3.95610897-101.45037526l7.53939089-4.51534948 6.56589811-4.20466032 2.65121438-1.76057204c10.97768453-7.39440261 21.95536909-15.80372322 31.95956085-24.8344222 35.83281936-32.31167525 42.83368233-52.34077139 27.48563658-70.63000811z" fill="#2e76e6" p-id="1429"></path><path d="M576.29194871 427.34755333l42.15016614 42.15016614-62.63493974 62.5728019L636.27567408 532.09123397v59.59018573h-94.49093753v39.72679047H636.27567408v59.61089833h-94.49093753v74.60682967h-59.59018571v-74.60682967H387.72432592v-59.59018572l94.47022492-0.02071261v-39.72679047H387.72432592V532.09123397h80.44778635l-62.61422712-62.5935145 42.15016614-42.15016614L512 491.63950206l64.29194871-64.29194873z" fill="#2e76e6" p-id="1430"></path></svg>